{
    "asset" : {
        "generator" : "Khronos glTF Blender I/O v3.3.32",
        "version" : "2.0"
    },
    "extensionsUsed" : [
        "KHR_materials_specular",
        "KHR_materials_ior"
    ],
    "scene" : 0,
    "scenes" : [
        {
            "name" : "Scene",
            "nodes" : [
                0,
                1,
                2,
                3,
                4,
                5,
                6,
                7
            ]
        }
    ],
    "nodes" : [
        {
            "mesh" : 0,
            "name" : "CRT",
            "rotation" : [
                0,
                -0.026633890345692635,
                0.9996452927589417,
                1.9456810207429953e-07
            ]
        },
        {
            "mesh" : 1,
            "name" : "Screen",
            "rotation" : [
                0,
                -0.026633890345692635,
                0.9996452927589417,
                1.9456810207429953e-07
            ]
        },
        {
            "mesh" : 2,
            "name" : "CRT.002",
            "rotation" : [
                0,
                -0.026633890345692635,
                0.9996452927589417,
                1.9456810207429953e-07
            ]
        },
        {
            "mesh" : 3,
            "name" : "CRT.003",
            "rotation" : [
                0,
                -0.026633890345692635,
                0.9996452927589417,
                1.9456810207429953e-07
            ]
        },
        {
            "mesh" : 4,
            "name" : "CRT.004",
            "rotation" : [
                0,
                -0.026633890345692635,
                0.9996452927589417,
                1.9456810207429953e-07
            ]
        },
        {
            "mesh" : 5,
            "name" : "CRT.005",
            "rotation" : [
                0,
                -0.026633890345692635,
                0.9996452927589417,
                1.9456810207429953e-07
            ]
        },
        {
            "mesh" : 6,
            "name" : "CRT.006",
            "rotation" : [
                0,
                -0.026633890345692635,
                0.9996452927589417,
                1.9456810207429953e-07
            ]
        },
        {
            "mesh" : 7,
            "name" : "CRT.007",
            "rotation" : [
                0,
                -0.026633890345692635,
                0.9996452927589417,
                1.9456810207429953e-07
            ]
        }
    ],
    "materials" : [
        {
            "doubleSided" : true,
            "name" : "MacMetal",
            "pbrMetallicRoughness" : {
                "baseColorFactor" : [
                    0.41280338168144226,
                    0.41280338168144226,
                    0.41280338168144226,
                    1
                ],
                "roughnessFactor" : 0.13029146194458008
            }
        },
        {
            "doubleSided" : true,
            "extensions" : {
                "KHR_materials_specular" : {
                    "specularColorFactor" : [
                        2.371357614441398,
                        2.371357614441398,
                        2.371357614441398
                    ]
                },
                "KHR_materials_ior" : {
                    "ior" : 1.4500000476837158
                }
            },
            "name" : "TVScreen",
            "pbrMetallicRoughness" : {
                "baseColorTexture" : {
                    "index" : 0
                },
                "metallicFactor" : 0,
                "roughnessFactor" : 0
            }
        },
        {
            "doubleSided" : true,
            "extensions" : {
                "KHR_materials_specular" : {
                    "specularColorFactor" : [
                        1.1964576951886015,
                        1.1964576951886015,
                        1.1964576951886015
                    ]
                },
                "KHR_materials_ior" : {
                    "ior" : 1.4500000476837158
                }
            },
            "name" : "ParallelPort",
            "pbrMetallicRoughness" : {
                "baseColorTexture" : {
                    "index" : 1
                },
                "metallicRoughnessTexture" : {
                    "index" : 2
                }
            }
        },
        {
            "doubleSided" : true,
            "extensions" : {
                "KHR_materials_specular" : {
                    "specularColorFactor" : [
                        2.371357614441398,
                        2.371357614441398,
                        2.371357614441398
                    ]
                },
                "KHR_materials_ior" : {
                    "ior" : 1.4500000476837158
                }
            },
            "name" : "SerialPorts",
            "pbrMetallicRoughness" : {
                "baseColorTexture" : {
                    "index" : 3
                },
                "metallicRoughnessTexture" : {
                    "index" : 4
                }
            }
        },
        {
            "doubleSided" : true,
            "name" : "Floppy",
            "pbrMetallicRoughness" : {
                "baseColorFactor" : [
                    0.4868965744972229,
                    0.0016233257483690977,
                    0.013763144612312317,
                    1
                ],
                "metallicFactor" : 0
            }
        },
        {
            "doubleSided" : true,
            "name" : "Floppy.001",
            "pbrMetallicRoughness" : {
                "metallicFactor" : 0
            }
        },
        {
            "doubleSided" : true,
            "name" : "Mac",
            "pbrMetallicRoughness" : {
                "baseColorTexture" : {
                    "index" : 5
                },
                "metallicFactor" : 0,
                "metallicRoughnessTexture" : {
                    "index" : 6
                }
            }
        },
        {
            "doubleSided" : true,
            "name" : "Prongs",
            "pbrMetallicRoughness" : {
                "baseColorFactor" : [
                    0.800000011920929,
                    0.800000011920929,
                    0.800000011920929,
                    1
                ],
                "roughnessFactor" : 0.23600000143051147
            }
        }
    ],
    "meshes" : [
        {
            "name" : "Plane.002",
            "primitives" : [
                {
                    "attributes" : {
                        "POSITION" : 0,
                        "NORMAL" : 1,
                        "TEXCOORD_0" : 2
                    },
                    "indices" : 3,
                    "material" : 0
                }
            ]
        },
        {
            "name" : "Plane.001",
            "primitives" : [
                {
                    "attributes" : {
                        "POSITION" : 4,
                        "NORMAL" : 5,
                        "TEXCOORD_0" : 6
                    },
                    "indices" : 7,
                    "material" : 1
                }
            ]
        },
        {
            "name" : "Plane.003",
            "primitives" : [
                {
                    "attributes" : {
                        "POSITION" : 8,
                        "NORMAL" : 9,
                        "TEXCOORD_0" : 10
                    },
                    "indices" : 11,
                    "material" : 2
                }
            ]
        },
        {
            "name" : "Plane.004",
            "primitives" : [
                {
                    "attributes" : {
                        "POSITION" : 12,
                        "NORMAL" : 13,
                        "TEXCOORD_0" : 14
                    },
                    "indices" : 15,
                    "material" : 3
                }
            ]
        },
        {
            "name" : "Plane.005",
            "primitives" : [
                {
                    "attributes" : {
                        "POSITION" : 16,
                        "NORMAL" : 17,
                        "TEXCOORD_0" : 18
                    },
                    "indices" : 19,
                    "material" : 4
                }
            ]
        },
        {
            "name" : "Plane.006",
            "primitives" : [
                {
                    "attributes" : {
                        "POSITION" : 20,
                        "NORMAL" : 21,
                        "TEXCOORD_0" : 22
                    },
                    "indices" : 23,
                    "material" : 5
                }
            ]
        },
        {
            "name" : "Plane.007",
            "primitives" : [
                {
                    "attributes" : {
                        "POSITION" : 24,
                        "NORMAL" : 25,
                        "TEXCOORD_0" : 26
                    },
                    "indices" : 27,
                    "material" : 6
                }
            ]
        },
        {
            "name" : "Plane.008",
            "primitives" : [
                {
                    "attributes" : {
                        "POSITION" : 28,
                        "NORMAL" : 29,
                        "TEXCOORD_0" : 30
                    },
                    "indices" : 31,
                    "material" : 7
                }
            ]
        }
    ],
    "textures" : [
        {
            "sampler" : 0,
            "source" : 0
        },
        {
            "sampler" : 0,
            "source" : 1
        },
        {
            "sampler" : 0,
            "source" : 2
        },
        {
            "sampler" : 0,
            "source" : 3
        },
        {
            "sampler" : 0,
            "source" : 2
        },
        {
            "sampler" : 0,
            "source" : 4
        },
        {
            "sampler" : 0,
            "source" : 2
        }
    ],
    "images" : [
        {
            "bufferView" : 8,
            "mimeType" : "image/png",
            "name" : "Screen"
        },
        {
            "bufferView" : 13,
            "mimeType" : "image/png",
            "name" : "ParallelPort_Diffuse"
        },
        {
            "bufferView" : 14,
            "mimeType" : "image/png",
            "name" : "Image"
        },
        {
            "bufferView" : 19,
            "mimeType" : "image/png",
            "name" : "SerialPort_Diffuse"
        },
        {
            "bufferView" : 32,
            "mimeType" : "image/png",
            "name" : "MacUnit_Diffuse"
        }
    ],
    "accessors" : [
        {
            "bufferView" : 0,
            "componentType" : 5126,
            "count" : 38,
            "max" : [
                0.11544549465179443,
                0.15691877901554108,
                0.13726070523262024
            ],
            "min" : [
                -0.1152886375784874,
                -0.014044564217329025,
                0.10907688736915588
            ],
            "type" : "VEC3"
        },
        {
            "bufferView" : 1,
            "componentType" : 5126,
            "count" : 38,
            "type" : "VEC3"
        },
        {
            "bufferView" : 2,
            "componentType" : 5126,
            "count" : 38,
            "type" : "VEC2"
        },
        {
            "bufferView" : 3,
            "componentType" : 5123,
            "count" : 66,
            "type" : "SCALAR"
        },
        {
            "bufferView" : 4,
            "componentType" : 5126,
            "count" : 144,
            "max" : [
                0.09571677446365356,
                0.008602887392044067,
                -0.11321151256561279
            ],
            "min" : [
                -0.0955597311258316,
                -0.13050173223018646,
                -0.12745451927185059
            ],
            "type" : "VEC3"
        },
        {
            "bufferView" : 5,
            "componentType" : 5126,
            "count" : 144,
            "type" : "VEC3"
        },
        {
            "bufferView" : 6,
            "componentType" : 5126,
            "count" : 144,
            "type" : "VEC2"
        },
        {
            "bufferView" : 7,
            "componentType" : 5123,
            "count" : 726,
            "type" : "SCALAR"
        },
        {
            "bufferView" : 9,
            "componentType" : 5126,
            "count" : 204,
            "max" : [
                0.03937354311347008,
                0.1539890170097351,
                0.13816124200820923
            ],
            "min" : [
                -0.0006952020339667797,
                0.14617742598056793,
                0.1258220374584198
            ],
            "type" : "VEC3"
        },
        {
            "bufferView" : 10,
            "componentType" : 5126,
            "count" : 204,
            "type" : "VEC3"
        },
        {
            "bufferView" : 11,
            "componentType" : 5126,
            "count" : 204,
            "type" : "VEC2"
        },
        {
            "bufferView" : 12,
            "componentType" : 5123,
            "count" : 420,
            "type" : "SCALAR"
        },
        {
            "bufferView" : 15,
            "componentType" : 5126,
            "count" : 660,
            "max" : [
                0.07862026989459991,
                0.15384680032730103,
                0.1381397247314453
            ],
            "min" : [
                -0.07503808289766312,
                0.14603516459465027,
                0.1258004903793335
            ],
            "type" : "VEC3"
        },
        {
            "bufferView" : 16,
            "componentType" : 5126,
            "count" : 660,
            "type" : "VEC3"
        },
        {
            "bufferView" : 17,
            "componentType" : 5126,
            "count" : 660,
            "type" : "VEC2"
        },
        {
            "bufferView" : 18,
            "componentType" : 5123,
            "count" : 1404,
            "type" : "SCALAR"
        },
        {
            "bufferView" : 20,
            "componentType" : 5126,
            "count" : 1286,
            "max" : [
                0.08130577206611633,
                0.07007896900177002,
                -0.09782242029905319
            ],
            "min" : [
                -0.006403907667845488,
                0.0662306696176529,
                -0.13664765655994415
            ],
            "type" : "VEC3"
        },
        {
            "bufferView" : 21,
            "componentType" : 5126,
            "count" : 1286,
            "type" : "VEC3"
        },
        {
            "bufferView" : 22,
            "componentType" : 5126,
            "count" : 1286,
            "type" : "VEC2"
        },
        {
            "bufferView" : 23,
            "componentType" : 5123,
            "count" : 4368,
            "type" : "SCALAR"
        },
        {
            "bufferView" : 24,
            "componentType" : 5126,
            "count" : 508,
            "max" : [
                0.08163439482450485,
                0.07007896900177002,
                -0.09782242029905319
            ],
            "min" : [
                0.06749329715967178,
                0.06623069941997528,
                -0.13664764165878296
            ],
            "type" : "VEC3"
        },
        {
            "bufferView" : 25,
            "componentType" : 5126,
            "count" : 508,
            "type" : "VEC3"
        },
        {
            "bufferView" : 26,
            "componentType" : 5126,
            "count" : 508,
            "type" : "VEC2"
        },
        {
            "bufferView" : 27,
            "componentType" : 5123,
            "count" : 1440,
            "type" : "SCALAR"
        },
        {
            "bufferView" : 28,
            "componentType" : 5126,
            "count" : 941,
            "max" : [
                0.12018202990293503,
                0.1783371865749359,
                0.1427561640739441
            ],
            "min" : [
                -0.11992157250642776,
                -0.18190805613994598,
                -0.140692800283432
            ],
            "type" : "VEC3"
        },
        {
            "bufferView" : 29,
            "componentType" : 5126,
            "count" : 941,
            "type" : "VEC3"
        },
        {
            "bufferView" : 30,
            "componentType" : 5126,
            "count" : 941,
            "type" : "VEC2"
        },
        {
            "bufferView" : 31,
            "componentType" : 5123,
            "count" : 1920,
            "type" : "SCALAR"
        },
        {
            "bufferView" : 33,
            "componentType" : 5126,
            "count" : 576,
            "max" : [
                -0.08778075128793716,
                0.04771009832620621,
                0.12977856397628784
            ],
            "min" : [
                -0.09671371430158615,
                0.03145258128643036,
                0.1119573563337326
            ],
            "type" : "VEC3"
        },
        {
            "bufferView" : 34,
            "componentType" : 5126,
            "count" : 576,
            "type" : "VEC3"
        },
        {
            "bufferView" : 35,
            "componentType" : 5126,
            "count" : 576,
            "type" : "VEC2"
        },
        {
            "bufferView" : 36,
            "componentType" : 5123,
            "count" : 1116,
            "type" : "SCALAR"
        }
    ],
    "bufferViews" : [
        {
            "buffer" : 0,
            "byteLength" : 456,
            "byteOffset" : 0,
            "target" : 34962
        },
        {
            "buffer" : 0,
            "byteLength" : 456,
            "byteOffset" : 456,
            "target" : 34962
        },
        {
            "buffer" : 0,
            "byteLength" : 304,
            "byteOffset" : 912,
            "target" : 34962
        },
        {
            "buffer" : 0,
            "byteLength" : 132,
            "byteOffset" : 1216,
            "target" : 34963
        },
        {
            "buffer" : 0,
            "byteLength" : 1728,
            "byteOffset" : 1348,
            "target" : 34962
        },
        {
            "buffer" : 0,
            "byteLength" : 1728,
            "byteOffset" : 3076,
            "target" : 34962
        },
        {
            "buffer" : 0,
            "byteLength" : 1152,
            "byteOffset" : 4804,
            "target" : 34962
        },
        {
            "buffer" : 0,
            "byteLength" : 1452,
            "byteOffset" : 5956,
            "target" : 34963
        },
        {
            "buffer" : 0,
            "byteLength" : 623676,
            "byteOffset" : 7408
        },
        {
            "buffer" : 0,
            "byteLength" : 2448,
            "byteOffset" : 631084,
            "target" : 34962
        },
        {
            "buffer" : 0,
            "byteLength" : 2448,
            "byteOffset" : 633532,
            "target" : 34962
        },
        {
            "buffer" : 0,
            "byteLength" : 1632,
            "byteOffset" : 635980,
            "target" : 34962
        },
        {
            "buffer" : 0,
            "byteLength" : 840,
            "byteOffset" : 637612,
            "target" : 34963
        },
        {
            "buffer" : 0,
            "byteLength" : 11722,
            "byteOffset" : 638452
        },
        {
            "buffer" : 0,
            "byteLength" : 90,
            "byteOffset" : 650176
        },
        {
            "buffer" : 0,
            "byteLength" : 7920,
            "byteOffset" : 650268,
            "target" : 34962
        },
        {
            "buffer" : 0,
            "byteLength" : 7920,
            "byteOffset" : 658188,
            "target" : 34962
        },
        {
            "buffer" : 0,
            "byteLength" : 5280,
            "byteOffset" : 666108,
            "target" : 34962
        },
        {
            "buffer" : 0,
            "byteLength" : 2808,
            "byteOffset" : 671388,
            "target" : 34963
        },
        {
            "buffer" : 0,
            "byteLength" : 7834,
            "byteOffset" : 674196
        },
        {
            "buffer" : 0,
            "byteLength" : 15432,
            "byteOffset" : 682032,
            "target" : 34962
        },
        {
            "buffer" : 0,
            "byteLength" : 15432,
            "byteOffset" : 697464,
            "target" : 34962
        },
        {
            "buffer" : 0,
            "byteLength" : 10288,
            "byteOffset" : 712896,
            "target" : 34962
        },
        {
            "buffer" : 0,
            "byteLength" : 8736,
            "byteOffset" : 723184,
            "target" : 34963
        },
        {
            "buffer" : 0,
            "byteLength" : 6096,
            "byteOffset" : 731920,
            "target" : 34962
        },
        {
            "buffer" : 0,
            "byteLength" : 6096,
            "byteOffset" : 738016,
            "target" : 34962
        },
        {
            "buffer" : 0,
            "byteLength" : 4064,
            "byteOffset" : 744112,
            "target" : 34962
        },
        {
            "buffer" : 0,
            "byteLength" : 2880,
            "byteOffset" : 748176,
            "target" : 34963
        },
        {
            "buffer" : 0,
            "byteLength" : 11292,
            "byteOffset" : 751056,
            "target" : 34962
        },
        {
            "buffer" : 0,
            "byteLength" : 11292,
            "byteOffset" : 762348,
            "target" : 34962
        },
        {
            "buffer" : 0,
            "byteLength" : 7528,
            "byteOffset" : 773640,
            "target" : 34962
        },
        {
            "buffer" : 0,
            "byteLength" : 3840,
            "byteOffset" : 781168,
            "target" : 34963
        },
        {
            "buffer" : 0,
            "byteLength" : 340298,
            "byteOffset" : 785008
        },
        {
            "buffer" : 0,
            "byteLength" : 6912,
            "byteOffset" : 1125308,
            "target" : 34962
        },
        {
            "buffer" : 0,
            "byteLength" : 6912,
            "byteOffset" : 1132220,
            "target" : 34962
        },
        {
            "buffer" : 0,
            "byteLength" : 4608,
            "byteOffset" : 1139132,
            "target" : 34962
        },
        {
            "buffer" : 0,
            "byteLength" : 2232,
            "byteOffset" : 1143740,
            "target" : 34963
        }
    ],
    "samplers" : [
        {
            "magFilter" : 9729,
            "minFilter" : 9987
        }
    ],
    "buffers" : [
        {
            "byteLength" : 1145972,
            "uri" : "data:application/octet-stream;base64,"
        }
    ]
}
